<?xml version="1.0" standalone="no"?>
<!DOCTYPE svg PUBLIC "-//W3C//DTD SVG 20010904//EN"
 "http://www.w3.org/TR/2001/REC-SVG-20010904/DTD/svg10.dtd">
<svg version="1.0" xmlns="http://www.w3.org/2000/svg"
 width="700.000000pt" height="700.000000pt" viewBox="0 0 700.000000 700.000000"
 preserveAspectRatio="xMidYMid meet">
<metadata>
Created by potrace 1.14, written by Peter Selinger 2001-2017
</metadata>
<g transform="translate(0.000000,700.000000) scale(0.100000,-0.100000)"
fill="#000000" stroke="none">
<path d="M0 3500 l0 -3500 3500 0 3500 0 0 3500 0 3500 -3500 0 -3500 0 0
-3500z m5210 2487 c50 -33 68 -72 80 -177 53 -441 233 -760 582 -1030 69 -53
100 -105 100 -168 0 -132 -122 -234 -241 -202 -105 28 -378 293 -522 507 l-52
77 -38 -145 c-104 -398 -260 -726 -477 -1004 -31 -38 -107 -122 -171 -186
-179 -178 -331 -286 -556 -395 -367 -179 -765 -242 -1317 -210 -133 8 -138 7
-138 -11 0 -33 -86 -368 -140 -548 -91 -300 -489 -1483 -506 -1504 -9 -10
-394 234 -394 250 0 13 69 196 233 619 247 636 340 903 402 1145 36 143 38
137 -47 170 -202 78 -401 197 -506 303 -292 293 -515 848 -473 1179 24 190 72
303 171 404 151 153 370 216 553 159 190 -59 431 -311 557 -584 81 -176 145
-431 169 -681 6 -60 11 -201 12 -312 l0 -201 107 -8 c190 -13 487 -9 615 10
203 29 408 91 568 172 224 112 489 348 628 559 138 209 278 528 342 779 11 43
19 80 17 82 -2 1 -27 -25 -55 -59 -91 -110 -310 -325 -352 -346 -143 -73 -301
56 -268 218 8 39 27 63 171 210 89 91 197 209 241 261 146 176 415 549 415
576 0 21 62 86 95 100 16 7 60 13 96 14 52 0 73 -5 99 -23z"/>
<path d="M1535 4839 c-54 -27 -109 -89 -123 -137 -24 -81 -6 -270 39 -405 57
-171 186 -394 293 -505 82 -86 319 -242 367 -242 24 0 -5 403 -42 599 -44 229
-114 381 -246 540 -140 168 -197 198 -288 150z"/>
</g>
</svg>
