<svg width="520" height="528" viewBox="0 0 520 528" fill="none" xmlns="http://www.w3.org/2000/svg">
<path d="M82.8828 528L60.4445 514.879L41.3572 501.896L43.4067 495.895C47.3338 484.414 54.263 466.722 62.289 446.236C68.4815 430.422 75.4828 412.541 82.1019 394.948C90.8811 371.609 97.5113 352.692 102.369 337.111C107.011 322.227 110.074 310.215 111.503 301.321C94.3984 295.348 77.7981 287.108 62.1062 276.785L61.8182 276.586C50.2528 268.241 38.6542 254.942 28.2631 238.131C17.9551 221.458 9.92915 203.095 5.05486 185.031C-0.905062 164.069 -1.58636 145.678 2.96667 128.817C5.48136 117.707 10.3003 108.287 17.296 100.813C24.0978 93.5483 32.8328 88.0571 44.0049 84.0288L44.1655 83.9733C61.4027 78.1552 77.006 80.4659 91.8615 91.0493C99.6216 95.5541 107.753 103.572 118.183 117.02C130.723 132.446 140.134 152.3 146.149 176.032C151.965 198.972 154.784 226.223 154.529 257.026V257.159L154.203 270.158C160.794 270.795 168.36 271.1 176.896 271.438C181.211 271.61 186.079 271.804 191.142 272.059C255.948 273.738 307.898 251.823 345.535 206.946C368.14 177.983 384.396 142.52 393.968 101.339C380.835 116.898 368.173 130.302 355.527 142.049L355.4 142.165C350.836 146.233 345.247 148.15 339.675 147.574C334.679 147.053 330.037 144.604 326.603 140.68C323.185 136.774 321.363 131.854 321.468 126.833C321.59 121.242 324.155 115.934 328.685 111.889C354.608 88.2289 380.669 56.4897 408.314 14.8764L408.613 14.4498C409.837 10.1388 411.803 6.85297 414.611 4.43153C417.868 1.61668 422.006 0.214794 426.98 0.236958C432.951 -0.560954 437.875 0.658078 441.619 3.86635C445.513 7.20206 447.579 12.2721 447.757 18.9325C451.855 66.0092 473.491 103.993 512.058 131.837L512.446 132.131C522.222 140.099 521.558 152.283 515.847 160.196C510.136 168.109 498.793 172.58 488.152 165.815L487.587 165.421C464.966 148.238 446.965 128.49 433.942 106.597C422.948 157.564 403.511 199.887 376.099 232.518L376.021 232.612C353.168 259.53 325.977 279.855 295.202 293.021C264.062 306.341 228.43 312.68 189.309 311.86L189.054 311.849C184.296 311.605 179.588 311.422 175.428 311.256C166.842 310.913 158.673 310.591 151.428 309.899C147.905 330.279 138.411 364.279 123.168 411.095C109.669 452.553 95.0741 493.662 87.2309 515.749L82.8884 527.983L82.8828 528ZM43.0577 174.581C47.0291 188.334 53.7534 203.001 61.9954 215.889C69.7943 228.085 78.4794 237.848 85.813 242.669L86.1176 242.88C96.3093 250.238 105.775 255.679 114.876 259.403L114.926 256.771C114.97 202.502 105.748 164.324 87.5134 143.296L87.2531 142.98C79.4431 133.067 72.4308 126.091 68.9468 123.575C65.2191 120.882 61.4415 120.046 58.312 121.22C48.8902 124.744 43.0189 130.357 40.3768 138.386C38.6376 147.557 39.5626 160.063 43.0577 174.581Z" fill="url(#paint0_linear_3839_2)"/>
<defs>
<linearGradient id="paint0_linear_3839_2" x1="457" y1="-11" x2="98" y2="528" gradientUnits="userSpaceOnUse">
<stop stop-color="white"/>
<stop offset="1" stop-color="#555555"/>
</linearGradient>
</defs>
</svg>
