<svg width="939" height="953" viewBox="0 0 939 953" fill="none" xmlns="http://www.w3.org/2000/svg">
<path d="M149.636 952.888L109.126 929.208L74.666 905.778L78.366 894.948C85.456 874.228 97.966 842.298 112.456 805.328C123.636 776.788 136.276 744.518 148.226 712.768C164.076 670.648 176.046 636.508 184.816 608.388C193.196 581.528 198.726 559.848 201.306 543.798C170.426 533.018 140.456 518.148 112.126 499.518L111.606 499.158C90.726 484.098 69.786 460.098 51.026 429.758C32.416 399.668 17.926 366.528 9.12601 333.928C-1.63399 296.098 -2.86399 262.908 5.35601 232.478C9.89601 212.428 18.596 195.428 31.226 181.938C43.506 168.828 59.276 158.918 79.446 151.648L79.736 151.548C110.856 141.048 139.026 145.218 165.846 164.318C179.856 172.448 194.536 186.918 213.366 211.188C236.006 239.028 252.996 274.858 263.856 317.688C274.356 359.088 279.446 408.268 278.986 463.858V464.098L278.396 487.558C290.296 488.708 303.956 489.258 319.366 489.868C327.156 490.178 335.946 490.528 345.086 490.988C462.086 494.018 555.876 454.468 623.826 373.478C664.636 321.208 693.986 257.208 711.266 182.888C687.556 210.968 664.696 235.158 641.866 256.358L641.636 256.568C633.396 263.908 623.306 267.368 613.246 266.328C604.226 265.388 595.846 260.968 589.646 253.888C583.476 246.838 580.186 237.958 580.376 228.898C580.596 218.808 585.226 209.228 593.406 201.928C640.206 159.228 687.256 101.948 737.166 26.8476L737.706 26.0776C739.916 18.2976 743.466 12.3676 748.536 7.99764C754.416 2.91764 761.886 0.38764 770.866 0.42764C781.646 -1.01236 790.536 1.18764 797.296 6.97764C804.326 12.9976 808.056 22.1476 808.376 34.1676C815.776 119.128 854.836 187.678 924.466 237.928L925.166 238.458C942.816 252.838 941.616 274.828 931.306 289.108C920.996 303.388 900.516 311.458 881.306 299.248L880.286 298.538C839.446 267.528 806.946 231.888 783.436 192.378C763.586 284.358 728.496 360.738 679.006 419.628L678.866 419.798C637.606 468.378 588.516 505.058 532.956 528.818C476.736 552.858 412.406 564.298 341.776 562.818L341.316 562.798C332.726 562.358 324.226 562.028 316.716 561.728C301.216 561.108 286.466 560.528 273.386 559.278C267.026 596.058 249.886 657.418 222.366 741.908C197.996 816.728 171.646 890.918 157.486 930.778L149.646 952.858L149.636 952.888ZM77.736 315.068C84.906 339.888 97.046 366.358 111.926 389.618C126.006 411.628 141.686 429.248 154.926 437.948L155.476 438.328C173.876 451.608 190.966 461.428 207.396 468.148L207.486 463.398C207.566 365.458 190.916 296.558 157.996 258.608L157.526 258.038C143.426 240.148 130.766 227.558 124.476 223.018C117.746 218.158 110.926 216.648 105.276 218.768C88.266 225.128 77.666 235.258 72.896 249.748C69.756 266.298 71.426 288.868 77.736 315.068Z" fill="white"/>
</svg>
