<svg width="94" height="94" viewBox="0 0 94 94" fill="none" xmlns="http://www.w3.org/2000/svg">
<g clip-path="url(#clip0_4154_27)">
<rect width="94" height="94" rx="47" fill="#222222"/>
<path d="M34.7734 47.8359H38.167V50.3253H34.7734V47.8359ZM55.8326 47.8359H59.2262V50.3253H55.8326V47.8359Z" fill="#0F3E4C"/>
<path d="M35.3156 50.0755C33.5281 52.7737 34.2216 56.0729 35.1304 58.382C38.3056 66.4491 46.8608 69.4767 46.9469 69.5064L47.0001 69.5247L47.0533 69.5064C47.1394 69.4767 55.6948 66.4491 58.87 58.382C59.7786 56.0736 60.472 52.7752 58.6858 50.0773L58.659 50.0656C57.4884 49.5534 56.2245 49.2891 54.9468 49.2891H39.0508C37.7731 49.2891 36.5092 49.5534 35.3386 50.0656L35.3156 50.0755Z" fill="#EBF0F2"/>
<path d="M35.3385 50.0657L35.3157 50.0757C33.528 52.7739 34.2217 56.0731 35.1303 58.3822C38.3055 66.4492 46.8607 69.4768 46.947 69.5066L47.0002 69.5249L47.0534 69.5066C47.0575 69.5051 47.0822 69.4964 47.1246 69.4806C47.0831 69.4378 47.0433 69.395 47.0002 69.3521C41.1692 63.5211 45.1059 58.1602 45.1059 58.1602L41.0918 49.2891H39.0507C37.773 49.2892 36.5091 49.5536 35.3385 50.0657Z" fill="#C2D4E6"/>
<path d="M79.0252 59.9371C78.1541 58.3803 76.7702 57.1737 75.1093 56.5229L70.4993 54.7163C70.9962 56.6784 69.98 59.0929 67.4754 61.895C63.8348 65.9679 58.4651 68.0226 54.6018 69.029C50.4059 70.122 47.0296 70.2494 47.0073 70.2505C46.9736 70.2492 43.6039 70.1228 39.4089 69.0308C35.543 68.0245 30.1703 65.9697 26.528 61.8949C24.0229 59.0923 23.0067 56.6772 23.5043 54.7148L18.8912 56.5227C17.2303 57.1736 15.8464 58.3802 14.9752 59.9369C13.6902 62.2321 12.3134 65.1191 11 68.0771C14.9992 76.3016 21.7341 82.9493 30.0205 86.8393V82.7553C30.0205 81.775 30.8225 80.973 31.8028 80.973H62.3074C63.2877 80.973 64.0897 81.775 64.0897 82.7553V86.7875C72.3257 82.8903 79.0184 76.2649 83 68.077C81.6867 65.1191 80.3099 62.2321 79.0252 59.9371Z" fill="#2C2C42"/>
<path d="M26.5295 62.889C26.7358 62.7868 26.9124 62.6333 27.0425 62.4432C26.867 62.2642 26.6954 62.0813 26.5278 61.8949C24.0228 59.0923 23.0066 56.6772 23.5041 54.7148L18.891 56.5228C17.2301 57.1736 15.8462 58.3802 14.9751 59.9369C13.6902 62.2319 12.3134 65.1189 11 68.077C13.0489 72.2906 15.8175 76.0889 19.1433 79.316C19.8178 76.3694 20.8551 71.8739 21.5716 68.9394C22.475 65.2399 25.3592 63.4691 26.5295 62.889Z" fill="#212135"/>
<path d="M47.0003 90.6108C53.1786 90.6108 59.0296 89.2102 64.2534 86.7092V82.4268C64.2534 81.4465 63.4514 80.6445 62.4711 80.6445H31.6397C30.6594 80.6445 29.8574 81.4465 29.8574 82.4268V86.7608C35.0533 89.229 40.8652 90.6108 47.0003 90.6108Z" fill="#2C2C42"/>
<path d="M60.7974 50.9136L58.8991 50.1696L58.6615 50.0656C57.4909 49.5534 56.227 49.2891 54.9493 49.2891H39.0532C37.7755 49.2891 36.5116 49.5534 35.3411 50.0656L35.1035 50.1696L33.2051 50.9136C34.7496 57.0963 40.3402 61.6764 47.0013 61.6764C53.6623 61.6764 59.2529 57.0963 60.7974 50.9136Z" fill="#C2D4E6"/>
<path d="M36.3343 49.8442C36.4401 49.8184 36.5459 49.7921 36.6525 49.7675C36.72 49.6999 36.7869 49.6288 36.8531 49.5547C36.3354 49.6804 35.8295 49.8505 35.3411 50.0632L35.1035 50.1672L33.2051 50.9112C34.5027 56.1057 38.6567 60.1676 43.9016 61.3339C44.1984 59.3982 45.1084 58.1579 45.1084 58.1579L44.9466 57.8003C40.7775 57.0161 37.4354 53.8928 36.3343 49.8442Z" fill="#99B8DA"/>
<path d="M57.7778 49.7321C56.8633 49.4386 55.9087 49.2892 54.9482 49.2891H39.0522C38.0898 49.2891 37.1353 49.4393 36.2227 49.7321C37.3442 54.6506 41.7419 58.3221 47.0002 58.3221C52.2585 58.3221 56.6562 54.6506 57.7778 49.7321Z" fill="#E0D3CD"/>
<path d="M54.846 45.1826C53.4707 47.1294 51.6263 48.9485 49.1665 50.1383C48.4973 50.462 47.7626 50.6407 47.0193 50.6421H46.9905C46.2439 50.641 45.5065 50.46 44.8346 50.1346C42.3758 48.9435 40.5326 47.1231 39.1581 45.1758C38.6638 47.0061 37.7467 48.9996 36.6523 50.0939C36.5456 50.1186 36.44 50.1447 36.334 50.1707C37.6112 54.8659 41.9012 58.3197 47.001 58.3197C52.1007 58.3197 56.3908 54.8659 57.6678 50.1707C57.562 50.1449 57.4562 50.1186 57.3495 50.0939C56.2569 49.0011 55.3406 47.011 54.846 45.1826Z" fill="#FFAA7B"/>
<path d="M47.3544 50.6282C47.2429 50.6369 47.1311 50.6415 47.0193 50.6421H46.9905C46.2439 50.641 45.5065 50.46 44.8346 50.1346C42.3758 48.9435 40.5326 47.1231 39.1581 45.1758C38.664 47.0061 37.7467 48.9996 36.6523 50.0939C36.5456 50.1186 36.4398 50.1447 36.334 50.1707C37.4495 54.2717 40.8636 57.4252 45.1082 58.1577C46.4866 55.7427 47.0952 52.9241 47.3544 50.6282Z" fill="#F7996B"/>
<path d="M61.5582 29.4687C60.9565 28.9173 59.758 29.1968 59.2397 29.5345C59.3532 30.2415 59.3597 30.9649 59.2616 31.679L58.4872 36.1331C58.4872 36.4922 58.4447 36.8444 58.4238 37.1904C59.9151 37.6402 60.8498 36.3014 60.9746 35.3827C61.0282 34.9872 61.1163 34.5972 61.238 34.217C61.6348 32.9782 63.0658 30.8504 61.5582 29.4687Z" fill="#FFAA7B"/>
<path d="M32.4467 29.4687C33.0485 28.9173 34.2471 29.1968 34.7653 29.5345C34.6522 30.2444 34.6448 30.967 34.7434 31.679L35.5178 36.1331C35.5178 36.4922 35.6003 36.8444 35.621 37.1904C34.1297 37.6402 33.1551 36.3014 33.0302 35.3827C32.9766 34.9872 32.8885 34.5972 32.7668 34.217C32.3702 32.9782 30.9391 30.8504 32.4467 29.4687Z" fill="#F7996B"/>
<path d="M58.871 28.1592C58.7333 27.8001 58.5599 27.4364 58.3412 27.0933C57.9709 26.5123 57.8081 25.8251 57.8577 25.1399C58.0004 23.1692 57.9238 19.3148 55.3368 18.1506C53.1388 17.1615 50.4425 17.7342 48.7231 18.3061C47.6055 18.6774 46.3977 18.6774 45.2801 18.3061C43.5607 17.7344 40.8644 17.1617 38.6664 18.1506C36.0718 19.3181 36.0023 23.1913 36.1466 25.1568C36.1978 25.8377 36.0278 26.517 35.6618 27.0935C35.4593 27.4113 35.2955 27.7467 35.1631 28.0798C34.7052 29.2318 34.5786 30.489 34.7471 31.7172L35.3536 36.134C35.3536 36.134 36.8639 46.6013 44.8336 50.4624C45.5054 50.7879 46.2429 50.9688 46.9895 50.9699H47.0183C47.7616 50.9685 48.4963 50.7898 49.1655 50.4662C56.9269 46.712 58.5666 36.6956 58.6494 36.1585L58.6497 36.1342L59.2613 31.6801C59.4241 30.4925 59.3005 29.2796 58.871 28.1592Z" fill="#FFBB99"/>
<path d="M44.0493 36.1339L43.6628 31.7171C43.5553 30.4889 43.636 29.2318 43.9278 28.0797C44.0122 27.7466 44.1166 27.4112 44.2456 27.0934C44.4798 26.5168 44.5864 25.8366 44.5546 25.1566C44.4693 23.3357 44.5021 19.8792 45.8219 18.452C45.6389 18.4127 45.458 18.3639 45.2799 18.306C43.5605 17.7343 40.8644 17.1616 38.6664 18.1505C36.0719 19.318 36.0023 23.1911 36.1467 25.1566C36.1978 25.8376 36.0278 26.5169 35.6618 27.0934C35.4593 27.4112 35.2955 27.7466 35.1631 28.0797C34.705 29.2317 34.5786 30.4889 34.7472 31.7171L35.3537 36.1339C35.3537 36.1339 36.8639 46.6012 44.8336 50.4623C45.5055 50.7877 46.2429 50.9687 46.9895 50.9698H47.0181C47.7615 50.9684 48.4962 50.7897 49.1654 50.466C49.3571 50.3727 49.5467 50.2749 49.7338 50.1726C44.9671 46.1044 44.0493 36.1339 44.0493 36.1339Z" fill="#FFAA7B"/>
<path d="M63.5095 20.7261C64.2668 20.6108 65.1004 20.0148 65.559 19.6426C65.7239 19.5087 65.6898 19.252 65.499 19.1586C61.9157 17.4052 59.7629 11.7214 56.85 9.91722C54.3568 8.37304 52.207 9.26238 51.5303 9.62131C51.4692 9.6536 51.3985 9.66272 51.3313 9.64699C51.264 9.63127 51.2047 9.59176 51.1643 9.53574C50.2018 8.19422 48.6042 7.39813 47.6657 7.02188C47.4152 6.92145 47.1763 7.18584 47.3014 7.42508C47.7159 8.21807 47.8904 8.86392 47.9634 9.28998C48.003 9.52121 47.7616 9.69986 47.5513 9.59584C44.4089 8.04268 38.821 9.14839 35.4098 13.3193C32.5716 16.7896 30.3847 17.3099 29.5963 17.376C29.5544 17.3795 29.5137 17.3921 29.4772 17.413C29.4407 17.4339 29.4092 17.4625 29.3849 17.4969C29.3606 17.5313 29.3442 17.5705 29.3367 17.612C29.3293 17.6534 29.331 17.6959 29.3417 17.7366C29.6472 18.8905 30.8258 19.6379 31.3247 19.9088C31.4633 19.9841 31.5211 20.16 31.4419 20.2963C31.2051 20.7041 30.6991 20.9513 30.402 21.0671C30.3381 21.0921 30.2852 21.1392 30.2531 21.1999C30.221 21.2605 30.2118 21.3307 30.2271 21.3976C30.5137 22.6735 31.8658 28.4583 33.2973 30.7009C34.2953 32.2643 34.8409 34.3763 35.1121 35.7601C35.1507 35.9567 35.4369 35.9391 35.451 35.7392C35.5574 34.2295 35.7119 31.7684 35.7722 29.4624C35.8462 26.6334 38.3176 24.9708 39.4437 24.3586C39.661 24.2404 39.9164 24.4345 39.863 24.6761L39.7092 25.3729C39.6651 25.5727 39.8374 25.7548 40.0391 25.7212C48.4804 24.3088 51.5802 21.3922 52.7121 19.5744C52.7503 19.5127 52.8081 19.4656 52.8762 19.4407C52.9443 19.4157 53.0188 19.4142 53.0878 19.4365C53.2181 19.4783 53.3066 19.5979 53.3133 19.7346C53.5772 25.1661 57.7767 25.828 58.3825 28.2375C58.8796 30.2144 58.7531 33.9653 58.6574 35.7351C58.6443 35.9772 58.9761 36.0637 59.0797 35.8446C60.3964 33.0593 60.2073 29.2083 62.2996 26.6631C63.9998 24.5951 64.7908 23.2383 65.0918 22.6619C65.1749 22.5028 65.0901 22.3126 64.9195 22.2572C64.1552 22.01 63.6384 21.5511 63.333 21.1984C63.1851 21.0274 63.2855 20.7603 63.5095 20.7261ZM66.3304 50.8085C65.8582 50.649 65.4538 50.3345 65.1829 49.9161C64.2477 48.4654 61.4621 45.3472 55.8341 47.8359C55.8341 47.8359 61.9035 50.2296 58.7191 58.32C55.5347 66.4105 47.0013 69.3499 47.0013 69.3499V70.4113C47.0013 70.4113 60.4932 69.9487 67.5968 62.0013C74.3893 54.4019 68.5565 51.5641 66.3304 50.8085ZM27.6718 50.8085C28.144 50.649 28.5484 50.3345 28.8193 49.9161C29.7547 48.4654 32.5401 45.3472 38.1683 47.8359C38.1683 47.8359 32.0989 50.2296 35.2833 58.32C38.4676 66.4105 47.0011 69.3499 47.0011 69.3499V70.4113C47.0011 70.4113 33.5092 69.9487 26.4055 62.0013C19.6129 54.4019 25.4457 51.5641 27.6718 50.8085Z" fill="#404051"/>
<path d="M26.9426 62.571C27.0486 62.4523 27.1317 62.3151 27.1879 62.1663C28.1854 59.4942 30.516 60.8638 31.7522 58.6565C33.0586 56.3239 34.8729 57.1379 34.8729 57.1379C32.6992 49.9938 38.1703 47.8352 38.1703 47.8352C32.5421 45.3465 29.7566 48.4647 28.8213 49.9153C28.5504 50.3337 28.146 50.6482 27.6737 50.8077C25.4476 51.5632 19.6148 54.4012 26.4075 62.0006C26.5816 62.1947 26.76 62.3848 26.9426 62.571Z" fill="#2C2C42"/>
<path d="M66.7035 75.0373V85.4293C67.5378 84.956 68.3549 84.4529 69.153 83.921V75.0373C69.153 74.7124 69.024 74.4009 68.7943 74.1712C68.5646 73.9415 68.2531 73.8125 67.9283 73.8125C67.6034 73.8125 67.2919 73.9415 67.0622 74.1712C66.8325 74.4009 66.7035 74.7124 66.7035 75.0373ZM27.4085 75.0373C27.4085 74.3607 26.8601 73.8125 26.1837 73.8125C25.5073 73.8125 24.959 74.3607 24.959 75.0373V83.9945C25.7574 84.5223 26.5744 85.0214 27.4085 85.4907V75.0373Z" fill="#212135"/>
<path d="M59.1277 67.4117C60.3686 67.4117 61.3746 66.4057 61.3746 65.1648C61.3746 63.9239 60.3686 62.918 59.1277 62.918C57.8868 62.918 56.8809 63.9239 56.8809 65.1648C56.8809 66.4057 57.8868 67.4117 59.1277 67.4117Z" fill="#2C2C42"/>
<path d="M34.8699 67.4117C36.1108 67.4117 37.1168 66.4057 37.1168 65.1648C37.1168 63.9239 36.1108 62.918 34.8699 62.918C33.629 62.918 32.623 63.9239 32.623 65.1648C32.623 66.4057 33.629 67.4117 34.8699 67.4117Z" fill="#2C2C42"/>
<path d="M59.1291 64.4453C58.8042 64.4453 58.4927 64.5744 58.263 64.804C58.0333 65.0337 57.9043 65.3452 57.9043 65.6701V83.5829C57.9043 84.2595 58.4527 84.8077 59.1291 84.8077C59.8054 84.8077 60.3538 84.2595 60.3538 83.5829V65.6701C60.3538 65.3452 60.2248 65.0337 59.9951 64.804C59.7654 64.5744 59.4539 64.4453 59.1291 64.4453Z" fill="#545460"/>
<path d="M59.1273 79.9062C58.1985 79.9062 57.4453 80.6592 57.4453 81.5883V84.2393C57.4453 85.1683 58.1983 85.9213 59.1273 85.9213C60.0562 85.9213 60.8093 85.1683 60.8093 84.2393V81.5883C60.8093 80.6592 60.0562 79.9062 59.1273 79.9062Z" fill="#EBF0F2"/>
<path d="M34.8732 64.4453C34.5484 64.4453 34.2368 64.5744 34.0072 64.804C33.7775 65.0337 33.6484 65.3452 33.6484 65.6701V83.5829C33.6484 84.2595 34.1968 84.8077 34.8732 84.8077C35.5496 84.8077 36.098 84.2595 36.098 83.5829V65.6701C36.098 65.3452 35.9689 65.0337 35.7392 64.804C35.5095 64.5744 35.198 64.4453 34.8732 64.4453Z" fill="#545460"/>
<path d="M34.8715 79.9062C33.9426 79.9062 33.1895 80.6592 33.1895 81.5883V84.2393C33.1895 85.1683 33.9424 85.9213 34.8715 85.9213C35.8005 85.9213 36.5535 85.1683 36.5535 84.2393V81.5883C36.5535 80.6592 35.8005 79.9062 34.8715 79.9062Z" fill="#EBF0F2"/>
<path d="M59.1287 83.3031C58.1999 83.3031 57.4467 82.5501 57.4467 81.6211V84.2339C57.4467 85.1629 58.1999 85.9159 59.1287 85.9159C60.0577 85.9159 60.8107 85.1629 60.8107 84.2339V81.6211C60.8107 82.5503 60.0576 83.3031 59.1287 83.3031ZM34.8715 83.3031C33.9426 83.3031 33.1895 82.5501 33.1895 81.6211V84.2339C33.1895 85.1629 33.9424 85.9159 34.8715 85.9159C35.8005 85.9159 36.5535 85.1629 36.5535 84.2339V81.6211C36.5535 82.5503 35.8005 83.3031 34.8715 83.3031Z" fill="#C2D4E6"/>
<path d="M44.5692 14.9937C40.4158 11.6816 47.5511 9.59643 47.5511 9.59643C44.4087 8.04327 38.8209 9.14899 35.4097 13.3199C32.5715 16.7902 30.3846 17.3105 29.5962 17.3766C29.5542 17.3801 29.5136 17.3927 29.4771 17.4136C29.4405 17.4345 29.409 17.4631 29.3848 17.4975C29.3605 17.5319 29.3441 17.5711 29.3366 17.6125C29.3291 17.6539 29.3308 17.6965 29.3416 17.7372C29.6471 18.891 30.8256 19.6385 31.3245 19.9094C31.4632 19.9847 31.521 20.1606 31.4418 20.2969C31.205 20.7047 30.6989 20.9519 30.4019 21.0677C30.3379 21.0927 30.2851 21.1398 30.253 21.2004C30.2209 21.2611 30.2117 21.3313 30.227 21.3982C30.5136 22.6741 31.8657 28.4589 33.2972 30.7015C34.2951 32.2649 34.8407 34.3769 35.112 35.7607C35.1505 35.9573 35.4368 35.9397 35.4508 35.7398C35.5573 34.2301 35.7118 31.769 35.7719 29.463C35.8459 26.634 38.3173 24.9714 39.4434 24.3592C39.6607 24.241 39.9161 24.4351 39.8627 24.6766L39.7089 25.3735C39.6987 25.4197 39.7 25.4677 39.7127 25.5133C39.7254 25.5589 39.749 25.6007 39.7816 25.6351C39.8141 25.6695 39.8546 25.6953 39.8995 25.7104C39.9443 25.7256 39.9922 25.7294 40.0389 25.7218C41.749 25.4357 43.2365 25.087 44.5363 24.6992C42.737 20.1731 48.7222 18.3054 44.5692 14.9937Z" fill="#2C2C42"/>
<circle cx="47" cy="47" r="46.5" stroke="white" stroke-width="3"/>
</g>
<defs>
<clipPath id="clip0_4154_27">
<rect width="94" height="94" rx="47" fill="white"/>
</clipPath>
</defs>
</svg>
